 
http://www.shotpix.com/images/50879285007033932624.jpg


 
http://www.imdb.com/title/tt2387433/



Plot: As the Barret family's peaceful suburban life is rocked by an escalating series of disturbing events, they come to learn that a terrifying and deadly force is after them. 



Director:
 Scott Stewart 

Writer:
 Scott Stewart 

Stars:
 Keri Russell, Jake Brennan, Josh Hamilton 

Genres:
  Horror |  Sci-Fi |  Thriller 

Country:
 USA 

Language:
 English 


Thanks : TommieCook




Format                                   : AVI
Format/Info                              : Audio Video Interleave
File size                                : 647 MiB
Duration                                 : 1h 33mn
Overall bit rate                         : 972 Kbps
Writing application                      : Lavf54.59.103

Video
ID                                       : 0
Format                                   : MPEG-4 Visual
Format profile                           : Simple@L3
Format settings, BVOP                    : No
Format settings, QPel                    : No
Format settings, GMC                     : No warppoints
Format settings, Matrix                  : Default (H.263)
Codec ID                                 : XVID
Codec ID/Hint                            : XviD
Duration                                 : 1h 33mn
Bit rate                                 : 833 Kbps
Width                                    : 640 pixels
Height                                   : 272 pixels
Display aspect ratio                     : 2.35:1
Frame rate                               : 25.000 fps
Color space                              : YUV
Chroma subsampling                       : 4:2:0
Bit depth                                : 8 bits
Scan type                                : Progressive
Compression mode                         : Lossy
Bits/(Pixel*Frame)                       : 0.191
Stream size                              : 554 MiB (86%)
Writing library                          : XviD 64

Audio
ID                                       : 1
Format                                   : AC-3
Format/Info                              : Audio Coding 3
Mode extension                           : CM (complete main)
Format settings, Endianness              : Big
Codec ID                                 : 2000
Duration                                 : 1h 33mn
Bit rate mode                            : Constant
Bit rate                                 : 128 Kbps
Channel(s)                               : 2 channels
Channel positions                        : Front: L R
Sampling rate                            : 48.0 KHz
Bit depth                                : 16 bits
Compression mode                         : Lossy
Stream size                              : 85.2 MiB (13%)
Alignment                                : Aligned on interleaves
Interleave, duration                     : 32 ms (0.80 video frame)



    	 
http://www.shotpix.com/images/82784175763896643126.png
    	 
http://www.shotpix.com/images/58890976667005269158.png
    	 
http://www.shotpix.com/images/86569499475118807773.png
    	 
http://www.shotpix.com/images/13242574123707746079.png
    	 
http://www.shotpix.com/images/15640411756333569799.png
    	 
http://www.shotpix.com/images/73072230309540911322.png
    	 
http://www.shotpix.com/images/13670534260335518550.png
    	 
http://www.shotpix.com/images/62698630102743907024.png